<?xml version="1.0" encoding="utf-8"?>
<!-- Generator: Adobe Illustrator 24.0.1, SVG Export Plug-In . SVG Version: 6.00 Build 0)  -->
<svg version="1.1" id="Layer_1" xmlns="http://www.w3.org/2000/svg" xmlns:xlink="http://www.w3.org/1999/xlink" x="0px" y="0px"
	 viewBox="0 0 24 24" style="enable-background:new 0 0 24 24;" xml:space="preserve">
<style type="text/css">
	.st0{fill-rule:evenodd;clip-rule:evenodd;fill:#ADADAD;}
</style>
<g>
	<path class="st0" d="M3.7,12c0-4.6,3.7-8.3,8.3-8.3s8.3,3.7,8.3,8.3s-3.7,8.3-8.3,8.3S3.7,16.6,3.7,12z M9.1,15.2V8.8
		c0-0.3,0.2-0.5,0.5-0.5h1.2c0.3,0,0.5,0.2,0.5,0.5v6.5c0,0.3-0.2,0.5-0.5,0.5H9.6C9.3,15.7,9.1,15.5,9.1,15.2z M12.7,15.2V8.8
		c0-0.3,0.2-0.5,0.5-0.5h1.2c0.3,0,0.5,0.2,0.5,0.5v6.5c0,0.3-0.2,0.5-0.5,0.5h-1.2C12.9,15.7,12.7,15.5,12.7,15.2z"/>
</g>
</svg>
