<?xml version="1.0" encoding="utf-8"?>
<!-- Generator: Adobe Illustrator 24.0.1, SVG Export Plug-In . SVG Version: 6.00 Build 0)  -->
<svg version="1.1" id="Layer_1" xmlns="http://www.w3.org/2000/svg" xmlns:xlink="http://www.w3.org/1999/xlink" x="0px" y="0px"
	 viewBox="0 0 24 24" style="enable-background:new 0 0 24 24;" xml:space="preserve">
<style type="text/css">
	.st0{fill:#FFFFFF;}
</style>
<title>05</title>
<g>
	<path class="st0" d="M12,3.7c-4.6,0-8.3,3.7-8.3,8.3s3.7,8.3,8.3,8.3s8.3-3.7,8.3-8.3S16.6,3.7,12,3.7z M12,15.6l-3-2.1
		c-0.1-0.1-0.2-0.1-0.3-0.1H7.9c-0.2,0-0.3-0.1-0.3-0.3v-2.2c0-0.2,0.1-0.3,0.3-0.3h0.8c0.1,0,0.2-0.1,0.3-0.1l3-2.1V15.6z
		 M13.3,14.1C13.3,14.1,13.3,14,13.3,14.1c-0.2-0.2-0.1-0.3,0-0.5c0.9-0.9,0.9-2.3,0-3.2c-0.1-0.1-0.1-0.3,0-0.4
		c0.1-0.1,0.3-0.1,0.5,0c0,0,0,0,0,0c1.1,1.1,1.1,3,0,4.1C13.6,14.2,13.4,14.2,13.3,14.1z M15.1,15.2c-0.1,0.1-0.3,0.1-0.5,0
		s-0.1-0.3,0-0.5c0,0,0,0,0,0c1.5-1.5,1.5-4,0-5.6c-0.1-0.1-0.1-0.3,0-0.5c0.1-0.1,0.3-0.1,0.5,0C16.9,10.6,16.9,13.5,15.1,15.2z"/>
</g>
</svg>
